<svg xmlns="http://www.w3.org/2000/svg" viewBox="0 0 128 128" width="128" height="128">
  <rect width="128" height="128" rx="28" fill="#6a4fc7"/>
  <g fill="#ffffff"><path d="M46 36l12 7v14l-12 7-12-7V43z" opacity=".5"/><path d="M70 36l12 7v14l-12 7-12-7V43z" opacity=".8"/><path d="M58 57l12 7v14l-12 7-12-7V64z"/><path d="M82 57l12 7v14l-12 7-12-7V64z" opacity=".7"/><path d="M34 57l12 7v14l-12 7-12-7V64z" opacity=".4"/><path d="M46 78l12 7v14l-12 7-12-7V85z" opacity=".6"/><path d="M70 78l12 7v14l-12 7-12-7V85z" opacity=".45"/></g>
</svg>
